<svg xmlns="http://www.w3.org/2000/svg" viewBox="0 0 48 48" role="img" aria-label="Patient-Centric Nursing Care" fill="none">
  <!-- Color + stroke style -->
  <g stroke="#3A86FF" stroke-width="2" stroke-linecap="round" stroke-linejoin="round">
    <!-- Caring hands -->
    <path d="M6 32c2.8-1.8 6.4-1.4 9 .9l2.8 2.4c1.1 1 2.8.9 3.7-.2l.9-1.1"></path>
    <path d="M42 32c-2.8-1.8-6.4-1.4-9 .9l-2.8 2.4c-1.1 1-2.8.9-3.7-.2l-.9-1.1"></path>

    <!-- Heart (patient-centric) -->
    <path d="M24 27.5c-5.8-4.7-9.5-8.2-9.5-12A6.5 6.5 0 0 1 21 9.1c1.3 0 2.6.4 3.7 1.1A6.8 6.8 0 0 1 28.9 9c3.6 0 6.6 3 6.6 6.6 0 3.8-3.7 7.3-9.5 11.9z"></path>

    <!-- Nurse bust -->
    <circle cx="24" cy="17.5" r="3.2"></circle>
    <path d="M17.8 24.8c1.4-2.7 4.1-4.3 6.2-4.3s4.8 1.6 6.2 4.3"></path>

    <!-- Nurse cap with cross -->
    <path d="M20 13.2h8l-1 2.6h-6z"></path>
    <path d="M24 13.9v1.2M22.9 15h2.2"></path>
  </g>
</svg>
