<?xml version="1.0" encoding="utf-8"?>

<!DOCTYPE svg PUBLIC "-//W3C//DTD SVG 1.1//EN" "http://www.w3.org/Graphics/SVG/1.1/DTD/svg11.dtd">
<!-- Uploaded to: SVG Repo, www.svgrepo.com, Generator: SVG Repo Mixer Tools -->
<svg height="800px" width="800px" version="1.1" id="_x32_" xmlns="http://www.w3.org/2000/svg" xmlns:xlink="http://www.w3.org/1999/xlink" 
	 viewBox="0 0 512 512"  xml:space="preserve">
<style type="text/css">
	.st0{fill:#000000;}
</style>
<g>
	<path class="st0" d="M227.687,184.762c0-5.788-4.697-10.485-10.485-10.485c-5.788,0-10.478,4.697-10.478,10.485
		c0,5.796,4.69,10.485,10.478,10.485C222.99,195.247,227.687,190.557,227.687,184.762z"/>
	<path class="st0" d="M294.792,174.276c-5.788,0-10.485,4.697-10.485,10.485c0,5.796,4.697,10.485,10.485,10.485
		c5.788,0,10.486-4.69,10.486-10.485C305.277,178.973,300.58,174.276,294.792,174.276z"/>
	<path class="st0" d="M282.253,224.749c-1.178-2.413-1.522-4.496-1.522-6.298c-0.014-1.802,0.373-3.325,0.733-4.352
		c0.179-0.517,0.359-0.905,0.467-1.127l0.107-0.216l0.015-0.007l-0.015-0.008c1.537-2.578,0.733-5.925-1.838-7.497
		c-2.586-1.594-5.975-0.79-7.569,1.802c-0.158,0.252-0.862,1.444-1.551,3.397c-0.69,1.953-1.365,4.69-1.365,8.008
		c0,1.372,0.129,2.844,0.41,4.381c-1.889,1.73-4.345,3.275-7.247,4.374c-3.26,1.249-7.023,1.968-10.966,1.96
		c-3.935,0.008-7.699-0.711-10.959-1.96c-3.267-1.236-6.011-3.016-7.964-5.012c-2.126-2.17-5.616-2.212-7.785-0.086
		c-2.169,2.133-2.212,5.616-0.079,7.792c3.253,3.304,7.34,5.846,11.9,7.598c4.568,1.738,9.631,2.679,14.888,2.679
		c5.264,0,10.32-0.94,14.887-2.679c2.815-1.078,5.416-2.492,7.785-4.173c1.896,2.758,4.395,5.494,7.649,8.137
		c2.363,1.91,5.824,1.558,7.749-0.804c1.91-2.363,1.551-5.824-0.804-7.742C285.499,229.927,283.445,227.148,282.253,224.749z"/>
	<path class="st0" d="M411.874,173.587C406.251,58.351,274.252,0,255.997,0s-150.254,58.351-155.87,173.587
		C95.085,277.024,116.975,512,255.997,512S416.915,277.024,411.874,173.587z M242.459,83.444c4.115-0.532,8.309-0.819,12.575-0.819
		c5.782,0,11.433,0.517,16.935,1.479c0.567,0.654,1.163,1.401,1.752,2.291c2.485,3.764,4.984,9.688,4.998,19.053
		c0.007,7.081-1.479,16.173-5.695,27.62c-13.272-10.678-20.834-20.504-25.107-28.611c-4.654-8.826-5.494-15.656-5.494-19.606
		C242.423,84.327,242.437,83.86,242.459,83.444z M232.987,85.116c0.028,5.344,1.271,13.696,6.585,23.75
		c2.377,4.503,5.558,9.329,9.788,14.392c-4.223-1.702-8.46-3.296-12.431-4.969c-6.844-2.88-12.848-6.104-16.913-10.406
		c-2.039-2.148-3.648-4.546-4.797-7.469c-0.941-2.42-1.552-5.243-1.738-8.582C219.665,88.944,226.186,86.675,232.987,85.116z
		 M339.62,384.267c-2.026,2.262-5.516,2.456-7.778,0.431l-103.969-93.024c6.428,1.566,13.07,2.578,19.879,3.01l24.345,21.782
		l27.291-30.493c5.214-2.205,10.226-4.783,14.995-7.706c1.896,2.06,1.975,5.249,0.072,7.375l-34.156,38.17l58.889,52.684
		C341.451,378.522,341.645,381.998,339.62,384.267z M376.964,204.03c-3.339,3.333-7.878,5.365-12.97,5.372
		c-2.104,0-4.122-0.374-6.075-1.056l-7.448-2.622l-2.593,7.455c-6.664,19.204-19.146,35.728-35.319,47.427
		c-16.188,11.706-36.008,18.593-57.525,18.6c-21.416-0.007-41.165-6.83-57.309-18.442c-16.145-11.613-28.619-28.008-35.362-47.076
		l-2.442-6.902l-7.052,1.932c-1.608,0.446-3.218,0.683-4.869,0.683c-5.084-0.008-9.624-2.04-12.97-5.372
		c-3.333-3.346-5.372-7.885-5.372-12.977c0-5.084,2.039-9.631,5.372-12.97c3.346-3.332,7.885-5.372,12.97-5.379
		c0.331,0,0.804,0.029,1.466,0.079l7.296,0.574l1.099-7.232c3.562-23.62,15.534-44.49,32.791-59.471
		c4.317-3.742,8.948-7.116,13.868-10.068c0.416,2.672,1.078,5.171,1.997,7.469c1.45,3.634,3.476,6.794,5.889,9.494
		c4.222,4.726,9.508,8.051,15.023,10.78c8.281,4.072,17.229,6.887,24.748,10.398c3.748,1.745,7.139,3.641,9.91,5.824
		c2.786,2.191,4.955,4.632,6.507,7.598c0.826,1.602,2.485,2.586,4.287,2.535c1.81-0.043,3.426-1.099,4.173-2.736
		c8.158-17.681,11.102-31.585,11.102-42.501c0.014-7.447-1.393-13.48-3.368-18.227c12.934,4.107,24.698,10.794,34.71,19.498
		c17.264,15.024,29.229,35.944,32.748,59.615l1.156,7.806l7.806-1.192c1.034-0.158,1.954-0.244,2.786-0.244
		c5.092,0.007,9.631,2.046,12.97,5.379c3.332,3.339,5.372,7.886,5.38,12.97C382.336,196.145,380.296,200.684,376.964,204.03z"/>
</g>
</svg>